<mxfile host="app.diagrams.net" agent="Mozilla/5.0 (Macintosh; Intel Mac OS X 10_15_7) AppleWebKit/537.36 (KHTML, like Gecko) Chrome/134.0.0.0 Safari/537.36" version="26.1.1">
  <diagram name="Page-1" id="coRo8ORDwXwepMu9kaxt">
    <mxGraphModel dx="970" dy="772" grid="1" gridSize="10" guides="1" tooltips="1" connect="1" arrows="1" fold="1" page="1" pageScale="1" pageWidth="827" pageHeight="1169" math="0" shadow="0">
      <root>
        <mxCell id="0" />
        <mxCell id="1" parent="0" />
        <mxCell id="-1FMtL--xxu45l2r8FuS-1" value="&lt;b&gt;Block n-1&lt;/b&gt;" style="rounded=0;whiteSpace=wrap;html=1;strokeWidth=2;" parent="1" vertex="1">
          <mxGeometry x="265.5" y="70" width="80" height="60" as="geometry" />
        </mxCell>
        <mxCell id="-1FMtL--xxu45l2r8FuS-2" value="&lt;b&gt;Block n&lt;/b&gt;" style="rounded=0;whiteSpace=wrap;html=1;strokeWidth=2;" parent="1" vertex="1">
          <mxGeometry x="385.5" y="70" width="80" height="60" as="geometry" />
        </mxCell>
        <mxCell id="-1FMtL--xxu45l2r8FuS-3" value="" style="endArrow=none;dashed=1;html=1;rounded=0;entryX=0;entryY=0.5;entryDx=0;entryDy=0;" parent="1" source="-1FMtL--xxu45l2r8FuS-1" target="-1FMtL--xxu45l2r8FuS-2" edge="1">
          <mxGeometry width="50" height="50" relative="1" as="geometry">
            <mxPoint x="185.5" y="100" as="sourcePoint" />
            <mxPoint x="245.5" y="99.5" as="targetPoint" />
          </mxGeometry>
        </mxCell>
        <mxCell id="-1FMtL--xxu45l2r8FuS-4" value="&lt;b&gt;Block n-2&lt;/b&gt;" style="rounded=0;whiteSpace=wrap;html=1;strokeWidth=2;" parent="1" vertex="1">
          <mxGeometry x="145.5" y="70" width="80" height="60" as="geometry" />
        </mxCell>
        <mxCell id="-1FMtL--xxu45l2r8FuS-5" value="" style="endArrow=none;dashed=1;html=1;rounded=0;exitX=1;exitY=0.5;exitDx=0;exitDy=0;entryX=0;entryY=0.5;entryDx=0;entryDy=0;" parent="1" source="-1FMtL--xxu45l2r8FuS-4" target="-1FMtL--xxu45l2r8FuS-1" edge="1">
          <mxGeometry width="50" height="50" relative="1" as="geometry">
            <mxPoint x="355.5" y="110" as="sourcePoint" />
            <mxPoint x="265.5" y="100" as="targetPoint" />
          </mxGeometry>
        </mxCell>
        <mxCell id="-1FMtL--xxu45l2r8FuS-6" value="" style="shape=curlyBracket;whiteSpace=wrap;html=1;rounded=1;labelPosition=left;verticalLabelPosition=middle;align=right;verticalAlign=middle;rotation=90;strokeWidth=2;" parent="1" vertex="1">
          <mxGeometry x="206" y="-78.5" width="20" height="269" as="geometry" />
        </mxCell>
        <mxCell id="-1FMtL--xxu45l2r8FuS-7" value="&lt;b&gt;Confirmed&lt;/b&gt;" style="text;html=1;align=center;verticalAlign=middle;resizable=0;points=[];autosize=1;strokeColor=none;fillColor=none;" parent="1" vertex="1">
          <mxGeometry x="185.5" y="25" width="80" height="30" as="geometry" />
        </mxCell>
        <mxCell id="-1FMtL--xxu45l2r8FuS-8" value="" style="shape=actor;whiteSpace=wrap;html=1;strokeWidth=2;fillColor=#fff2cc;strokeColor=#d6b656;" parent="1" vertex="1">
          <mxGeometry x="115.12" y="521" width="40" height="50" as="geometry" />
        </mxCell>
        <mxCell id="-1FMtL--xxu45l2r8FuS-9" value="" style="shape=actor;whiteSpace=wrap;html=1;strokeWidth=2;fillColor=#fff2cc;strokeColor=#d6b656;" parent="1" vertex="1">
          <mxGeometry x="294.12" y="521" width="40" height="50" as="geometry" />
        </mxCell>
        <mxCell id="-1FMtL--xxu45l2r8FuS-10" value="" style="shape=actor;whiteSpace=wrap;html=1;strokeWidth=2;fillColor=#fff2cc;strokeColor=#d6b656;" parent="1" vertex="1">
          <mxGeometry x="236.62" y="521" width="40" height="50" as="geometry" />
        </mxCell>
        <mxCell id="-1FMtL--xxu45l2r8FuS-11" value="" style="shape=actor;whiteSpace=wrap;html=1;strokeWidth=2;fillColor=#fff2cc;strokeColor=#d6b656;" parent="1" vertex="1">
          <mxGeometry x="175.12" y="521" width="40" height="50" as="geometry" />
        </mxCell>
        <mxCell id="-1FMtL--xxu45l2r8FuS-12" value="" style="shape=actor;whiteSpace=wrap;html=1;strokeWidth=2;fillColor=#fff2cc;strokeColor=#d6b656;" parent="1" vertex="1">
          <mxGeometry x="409.12" y="521" width="40" height="50" as="geometry" />
        </mxCell>
        <mxCell id="-1FMtL--xxu45l2r8FuS-13" value="" style="group" parent="1" vertex="1" connectable="0">
          <mxGeometry x="102.5" y="100" width="26" height="6" as="geometry" />
        </mxCell>
        <mxCell id="-1FMtL--xxu45l2r8FuS-14" value="" style="ellipse;shape=doubleEllipse;whiteSpace=wrap;html=1;aspect=fixed;fillColor=#000000;" parent="-1FMtL--xxu45l2r8FuS-13" vertex="1">
          <mxGeometry x="-1" width="6" height="6" as="geometry" />
        </mxCell>
        <mxCell id="-1FMtL--xxu45l2r8FuS-15" value="" style="ellipse;shape=doubleEllipse;whiteSpace=wrap;html=1;aspect=fixed;fillColor=#000000;" parent="-1FMtL--xxu45l2r8FuS-13" vertex="1">
          <mxGeometry x="10" width="6" height="6" as="geometry" />
        </mxCell>
        <mxCell id="-1FMtL--xxu45l2r8FuS-16" value="" style="ellipse;shape=doubleEllipse;whiteSpace=wrap;html=1;aspect=fixed;fillColor=#000000;" parent="-1FMtL--xxu45l2r8FuS-13" vertex="1">
          <mxGeometry x="21" width="6" height="6" as="geometry" />
        </mxCell>
        <mxCell id="-1FMtL--xxu45l2r8FuS-17" value="" style="endArrow=classic;html=1;rounded=0;exitX=0.5;exitY=0;exitDx=0;exitDy=0;entryX=0.5;entryY=1;entryDx=0;entryDy=0;" parent="1" source="-1FMtL--xxu45l2r8FuS-58" target="-1FMtL--xxu45l2r8FuS-2" edge="1">
          <mxGeometry width="50" height="50" relative="1" as="geometry">
            <mxPoint x="327" y="216" as="sourcePoint" />
            <mxPoint x="401" y="271" as="targetPoint" />
          </mxGeometry>
        </mxCell>
        <mxCell id="-1FMtL--xxu45l2r8FuS-18" value="" style="endArrow=classic;html=1;rounded=0;exitX=0.5;exitY=1;exitDx=0;exitDy=0;entryX=0.5;entryY=0;entryDx=0;entryDy=0;" parent="1" source="-1FMtL--xxu45l2r8FuS-4" target="-1FMtL--xxu45l2r8FuS-58" edge="1">
          <mxGeometry width="50" height="50" relative="1" as="geometry">
            <mxPoint x="351" y="321" as="sourcePoint" />
            <mxPoint x="321" y="203.5" as="targetPoint" />
          </mxGeometry>
        </mxCell>
        <mxCell id="-1FMtL--xxu45l2r8FuS-19" value="" style="group" parent="1" vertex="1" connectable="0">
          <mxGeometry x="363.12" y="555" width="26" height="6" as="geometry" />
        </mxCell>
        <mxCell id="-1FMtL--xxu45l2r8FuS-20" value="" style="ellipse;shape=doubleEllipse;whiteSpace=wrap;html=1;aspect=fixed;fillColor=#000000;" parent="-1FMtL--xxu45l2r8FuS-19" vertex="1">
          <mxGeometry x="-1" width="6" height="6" as="geometry" />
        </mxCell>
        <mxCell id="-1FMtL--xxu45l2r8FuS-21" value="" style="ellipse;shape=doubleEllipse;whiteSpace=wrap;html=1;aspect=fixed;fillColor=#000000;" parent="-1FMtL--xxu45l2r8FuS-19" vertex="1">
          <mxGeometry x="10" width="6" height="6" as="geometry" />
        </mxCell>
        <mxCell id="-1FMtL--xxu45l2r8FuS-22" value="" style="ellipse;shape=doubleEllipse;whiteSpace=wrap;html=1;aspect=fixed;fillColor=#000000;" parent="-1FMtL--xxu45l2r8FuS-19" vertex="1">
          <mxGeometry x="21" width="6" height="6" as="geometry" />
        </mxCell>
        <mxCell id="-1FMtL--xxu45l2r8FuS-23" value="" style="endArrow=classic;html=1;rounded=0;entryX=0.5;entryY=1;entryDx=0;entryDy=0;exitX=0.5;exitY=0;exitDx=0;exitDy=0;" parent="1" source="-1FMtL--xxu45l2r8FuS-8" target="-1FMtL--xxu45l2r8FuS-58" edge="1">
          <mxGeometry width="50" height="50" relative="1" as="geometry">
            <mxPoint x="135.37" y="496" as="sourcePoint" />
            <mxPoint x="255.1199999999999" y="427" as="targetPoint" />
          </mxGeometry>
        </mxCell>
        <mxCell id="-1FMtL--xxu45l2r8FuS-24" value="" style="endArrow=classic;html=1;rounded=0;entryX=0.5;entryY=1;entryDx=0;entryDy=0;exitX=0.5;exitY=0;exitDx=0;exitDy=0;" parent="1" source="-1FMtL--xxu45l2r8FuS-11" target="-1FMtL--xxu45l2r8FuS-57" edge="1">
          <mxGeometry width="50" height="50" relative="1" as="geometry">
            <mxPoint x="195.37" y="496" as="sourcePoint" />
            <mxPoint x="135.1199999999999" y="427" as="targetPoint" />
          </mxGeometry>
        </mxCell>
        <mxCell id="-1FMtL--xxu45l2r8FuS-25" value="" style="endArrow=classic;html=1;rounded=0;entryX=0.5;entryY=1;entryDx=0;entryDy=0;exitX=0.494;exitY=-0.052;exitDx=0;exitDy=0;exitPerimeter=0;" parent="1" source="-1FMtL--xxu45l2r8FuS-8" target="-1FMtL--xxu45l2r8FuS-57" edge="1">
          <mxGeometry width="50" height="50" relative="1" as="geometry">
            <mxPoint x="135.37" y="496" as="sourcePoint" />
            <mxPoint x="135.1199999999999" y="427" as="targetPoint" />
          </mxGeometry>
        </mxCell>
        <mxCell id="-1FMtL--xxu45l2r8FuS-26" value="" style="endArrow=classic;html=1;rounded=0;exitX=0.5;exitY=0;exitDx=0;exitDy=0;entryX=0.5;entryY=1;entryDx=0;entryDy=0;" parent="1" source="-1FMtL--xxu45l2r8FuS-10" target="-1FMtL--xxu45l2r8FuS-58" edge="1">
          <mxGeometry width="50" height="50" relative="1" as="geometry">
            <mxPoint x="230.87" y="501" as="sourcePoint" />
            <mxPoint x="255" y="427" as="targetPoint" />
          </mxGeometry>
        </mxCell>
        <mxCell id="-1FMtL--xxu45l2r8FuS-27" value="" style="endArrow=classic;html=1;rounded=0;exitX=0.5;exitY=0;exitDx=0;exitDy=0;" parent="1" source="-1FMtL--xxu45l2r8FuS-10" edge="1">
          <mxGeometry width="50" height="50" relative="1" as="geometry">
            <mxPoint x="250.87" y="497" as="sourcePoint" />
            <mxPoint x="340" y="340" as="targetPoint" />
          </mxGeometry>
        </mxCell>
        <mxCell id="-1FMtL--xxu45l2r8FuS-28" value="" style="endArrow=classic;html=1;rounded=0;exitX=0.5;exitY=0;exitDx=0;exitDy=0;entryX=0.5;entryY=1;entryDx=0;entryDy=0;" parent="1" source="-1FMtL--xxu45l2r8FuS-9" target="-1FMtL--xxu45l2r8FuS-59" edge="1">
          <mxGeometry width="50" height="50" relative="1" as="geometry">
            <mxPoint x="330.87" y="501" as="sourcePoint" />
            <mxPoint x="429.1199999999999" y="427" as="targetPoint" />
          </mxGeometry>
        </mxCell>
        <mxCell id="-1FMtL--xxu45l2r8FuS-29" value="" style="endArrow=classic;html=1;rounded=0;exitX=0.5;exitY=0;exitDx=0;exitDy=0;" parent="1" source="-1FMtL--xxu45l2r8FuS-9" edge="1">
          <mxGeometry width="50" height="50" relative="1" as="geometry">
            <mxPoint x="310.87" y="501" as="sourcePoint" />
            <mxPoint x="340" y="340" as="targetPoint" />
          </mxGeometry>
        </mxCell>
        <mxCell id="-1FMtL--xxu45l2r8FuS-30" value="" style="endArrow=classic;html=1;rounded=0;exitX=0.5;exitY=0;exitDx=0;exitDy=0;entryX=0.5;entryY=1;entryDx=0;entryDy=0;" parent="1" source="-1FMtL--xxu45l2r8FuS-9" target="-1FMtL--xxu45l2r8FuS-58" edge="1">
          <mxGeometry width="50" height="50" relative="1" as="geometry">
            <mxPoint x="205.37" y="477" as="sourcePoint" />
            <mxPoint x="255.1199999999999" y="427" as="targetPoint" />
          </mxGeometry>
        </mxCell>
        <mxCell id="-1FMtL--xxu45l2r8FuS-31" value="" style="endArrow=classic;html=1;rounded=0;exitX=0.5;exitY=0;exitDx=0;exitDy=0;entryX=0.5;entryY=1;entryDx=0;entryDy=0;" parent="1" source="-1FMtL--xxu45l2r8FuS-12" target="-1FMtL--xxu45l2r8FuS-59" edge="1">
          <mxGeometry width="50" height="50" relative="1" as="geometry">
            <mxPoint x="409.12" y="496" as="sourcePoint" />
            <mxPoint x="429.1199999999999" y="427" as="targetPoint" />
          </mxGeometry>
        </mxCell>
        <mxCell id="-1FMtL--xxu45l2r8FuS-33" value="" style="group" parent="1" vertex="1" connectable="0">
          <mxGeometry x="150.12" y="464" width="23" height="23" as="geometry" />
        </mxCell>
        <mxCell id="-1FMtL--xxu45l2r8FuS-34" value="" style="ellipse;whiteSpace=wrap;html=1;aspect=fixed;fillColor=default;strokeColor=none;" parent="-1FMtL--xxu45l2r8FuS-33" vertex="1">
          <mxGeometry width="23" height="23" as="geometry" />
        </mxCell>
        <mxCell id="-1FMtL--xxu45l2r8FuS-35" value="" style="shape=image;html=1;verticalAlign=top;verticalLabelPosition=bottom;labelBackgroundColor=#ffffff;imageAspect=0;aspect=fixed;image=https://cdn0.iconfinder.com/data/icons/basic-e-commerce-line/48/Receipt_success-128.png" parent="-1FMtL--xxu45l2r8FuS-33" vertex="1">
          <mxGeometry x="2.8800000000000026" y="2.8799999999999955" width="17.25" height="17.25" as="geometry" />
        </mxCell>
        <mxCell id="-1FMtL--xxu45l2r8FuS-36" value="" style="group" parent="1" vertex="1" connectable="0">
          <mxGeometry x="123.62" y="465.25" width="23" height="23" as="geometry" />
        </mxCell>
        <mxCell id="-1FMtL--xxu45l2r8FuS-37" value="" style="ellipse;whiteSpace=wrap;html=1;aspect=fixed;fillColor=default;strokeColor=none;" parent="-1FMtL--xxu45l2r8FuS-36" vertex="1">
          <mxGeometry width="23" height="23" as="geometry" />
        </mxCell>
        <mxCell id="-1FMtL--xxu45l2r8FuS-38" value="" style="shape=image;html=1;verticalAlign=top;verticalLabelPosition=bottom;labelBackgroundColor=#ffffff;imageAspect=0;aspect=fixed;image=https://cdn0.iconfinder.com/data/icons/basic-e-commerce-line/48/Receipt_success-128.png" parent="-1FMtL--xxu45l2r8FuS-36" vertex="1">
          <mxGeometry x="2.8800000000000026" y="1.8799999999999955" width="17.25" height="17.25" as="geometry" />
        </mxCell>
        <mxCell id="-1FMtL--xxu45l2r8FuS-39" value="" style="group" parent="1" vertex="1" connectable="0">
          <mxGeometry x="174" y="464" width="23" height="23" as="geometry" />
        </mxCell>
        <mxCell id="-1FMtL--xxu45l2r8FuS-40" value="" style="ellipse;whiteSpace=wrap;html=1;aspect=fixed;fillColor=default;strokeColor=none;" parent="-1FMtL--xxu45l2r8FuS-39" vertex="1">
          <mxGeometry width="23" height="23" as="geometry" />
        </mxCell>
        <mxCell id="-1FMtL--xxu45l2r8FuS-41" value="" style="shape=image;html=1;verticalAlign=top;verticalLabelPosition=bottom;labelBackgroundColor=#ffffff;imageAspect=0;aspect=fixed;image=https://cdn0.iconfinder.com/data/icons/basic-e-commerce-line/48/Receipt_success-128.png" parent="-1FMtL--xxu45l2r8FuS-39" vertex="1">
          <mxGeometry x="2.8800000000000026" y="2.8799999999999955" width="17.25" height="17.25" as="geometry" />
        </mxCell>
        <mxCell id="-1FMtL--xxu45l2r8FuS-42" value="" style="group" parent="1" vertex="1" connectable="0">
          <mxGeometry x="240" y="464" width="23" height="23" as="geometry" />
        </mxCell>
        <mxCell id="-1FMtL--xxu45l2r8FuS-43" value="" style="ellipse;whiteSpace=wrap;html=1;aspect=fixed;fillColor=default;strokeColor=none;" parent="-1FMtL--xxu45l2r8FuS-42" vertex="1">
          <mxGeometry width="23" height="23" as="geometry" />
        </mxCell>
        <mxCell id="-1FMtL--xxu45l2r8FuS-44" value="" style="shape=image;html=1;verticalAlign=top;verticalLabelPosition=bottom;labelBackgroundColor=#ffffff;imageAspect=0;aspect=fixed;image=https://cdn0.iconfinder.com/data/icons/basic-e-commerce-line/48/Receipt_success-128.png" parent="-1FMtL--xxu45l2r8FuS-42" vertex="1">
          <mxGeometry x="2.8800000000000026" y="2.8799999999999955" width="17.25" height="17.25" as="geometry" />
        </mxCell>
        <mxCell id="-1FMtL--xxu45l2r8FuS-45" value="" style="group" parent="1" vertex="1" connectable="0">
          <mxGeometry x="282" y="464" width="23" height="23" as="geometry" />
        </mxCell>
        <mxCell id="-1FMtL--xxu45l2r8FuS-46" value="" style="ellipse;whiteSpace=wrap;html=1;aspect=fixed;fillColor=default;strokeColor=none;" parent="-1FMtL--xxu45l2r8FuS-45" vertex="1">
          <mxGeometry width="23" height="23" as="geometry" />
        </mxCell>
        <mxCell id="-1FMtL--xxu45l2r8FuS-47" value="" style="shape=image;html=1;verticalAlign=top;verticalLabelPosition=bottom;labelBackgroundColor=#ffffff;imageAspect=0;aspect=fixed;image=https://cdn0.iconfinder.com/data/icons/basic-e-commerce-line/48/Receipt_success-128.png" parent="-1FMtL--xxu45l2r8FuS-45" vertex="1">
          <mxGeometry x="2.8800000000000026" y="2.8799999999999955" width="17.25" height="17.25" as="geometry" />
        </mxCell>
        <mxCell id="-1FMtL--xxu45l2r8FuS-48" value="" style="group" parent="1" vertex="1" connectable="0">
          <mxGeometry x="307" y="464" width="23" height="23" as="geometry" />
        </mxCell>
        <mxCell id="-1FMtL--xxu45l2r8FuS-49" value="" style="ellipse;whiteSpace=wrap;html=1;aspect=fixed;fillColor=default;strokeColor=none;" parent="-1FMtL--xxu45l2r8FuS-48" vertex="1">
          <mxGeometry width="23" height="23" as="geometry" />
        </mxCell>
        <mxCell id="-1FMtL--xxu45l2r8FuS-50" value="" style="shape=image;html=1;verticalAlign=top;verticalLabelPosition=bottom;labelBackgroundColor=#ffffff;imageAspect=0;aspect=fixed;image=https://cdn0.iconfinder.com/data/icons/basic-e-commerce-line/48/Receipt_success-128.png" parent="-1FMtL--xxu45l2r8FuS-48" vertex="1">
          <mxGeometry x="2.8800000000000026" y="2.8799999999999955" width="17.25" height="17.25" as="geometry" />
        </mxCell>
        <mxCell id="-1FMtL--xxu45l2r8FuS-51" value="" style="group" parent="1" vertex="1" connectable="0">
          <mxGeometry x="327" y="464" width="23" height="23" as="geometry" />
        </mxCell>
        <mxCell id="-1FMtL--xxu45l2r8FuS-52" value="" style="ellipse;whiteSpace=wrap;html=1;aspect=fixed;fillColor=default;strokeColor=none;" parent="-1FMtL--xxu45l2r8FuS-51" vertex="1">
          <mxGeometry width="23" height="23" as="geometry" />
        </mxCell>
        <mxCell id="-1FMtL--xxu45l2r8FuS-53" value="" style="shape=image;html=1;verticalAlign=top;verticalLabelPosition=bottom;labelBackgroundColor=#ffffff;imageAspect=0;aspect=fixed;image=https://cdn0.iconfinder.com/data/icons/basic-e-commerce-line/48/Receipt_success-128.png" parent="-1FMtL--xxu45l2r8FuS-51" vertex="1">
          <mxGeometry x="2.8800000000000026" y="2.8799999999999955" width="17.25" height="17.25" as="geometry" />
        </mxCell>
        <mxCell id="-1FMtL--xxu45l2r8FuS-54" value="" style="group" parent="1" vertex="1" connectable="0">
          <mxGeometry x="414" y="464" width="23" height="23" as="geometry" />
        </mxCell>
        <mxCell id="-1FMtL--xxu45l2r8FuS-55" value="" style="ellipse;whiteSpace=wrap;html=1;aspect=fixed;fillColor=default;strokeColor=none;" parent="-1FMtL--xxu45l2r8FuS-54" vertex="1">
          <mxGeometry width="23" height="23" as="geometry" />
        </mxCell>
        <mxCell id="-1FMtL--xxu45l2r8FuS-56" value="" style="shape=image;html=1;verticalAlign=top;verticalLabelPosition=bottom;labelBackgroundColor=#ffffff;imageAspect=0;aspect=fixed;image=https://cdn0.iconfinder.com/data/icons/basic-e-commerce-line/48/Receipt_success-128.png" parent="-1FMtL--xxu45l2r8FuS-54" vertex="1">
          <mxGeometry x="2.8800000000000026" y="2.8799999999999955" width="17.25" height="17.25" as="geometry" />
        </mxCell>
        <mxCell id="-1FMtL--xxu45l2r8FuS-57" value="" style="shape=actor;whiteSpace=wrap;html=1;strokeWidth=2;fillColor=#d5e8d4;strokeColor=#82b366;" parent="1" vertex="1">
          <mxGeometry x="123.62" y="290" width="40" height="50" as="geometry" />
        </mxCell>
        <mxCell id="-1FMtL--xxu45l2r8FuS-58" value="" style="shape=actor;whiteSpace=wrap;html=1;strokeWidth=2;fillColor=#d5e8d4;strokeColor=#82b366;" parent="1" vertex="1">
          <mxGeometry x="215.12" y="290" width="40" height="50" as="geometry" />
        </mxCell>
        <mxCell id="-1FMtL--xxu45l2r8FuS-59" value="" style="shape=actor;whiteSpace=wrap;html=1;strokeWidth=2;fillColor=#d5e8d4;strokeColor=#82b366;" parent="1" vertex="1">
          <mxGeometry x="383" y="290" width="40" height="50" as="geometry" />
        </mxCell>
        <mxCell id="-1FMtL--xxu45l2r8FuS-60" value="" style="group" parent="1" vertex="1" connectable="0">
          <mxGeometry x="313.12" y="325" width="26" height="6" as="geometry" />
        </mxCell>
        <mxCell id="-1FMtL--xxu45l2r8FuS-61" value="" style="ellipse;shape=doubleEllipse;whiteSpace=wrap;html=1;aspect=fixed;fillColor=#000000;" parent="-1FMtL--xxu45l2r8FuS-60" vertex="1">
          <mxGeometry x="17" width="6" height="6" as="geometry" />
        </mxCell>
        <mxCell id="-1FMtL--xxu45l2r8FuS-62" value="" style="ellipse;shape=doubleEllipse;whiteSpace=wrap;html=1;aspect=fixed;fillColor=#000000;" parent="-1FMtL--xxu45l2r8FuS-60" vertex="1">
          <mxGeometry x="28" width="6" height="6" as="geometry" />
        </mxCell>
        <mxCell id="-1FMtL--xxu45l2r8FuS-63" value="" style="ellipse;shape=doubleEllipse;whiteSpace=wrap;html=1;aspect=fixed;fillColor=#000000;" parent="-1FMtL--xxu45l2r8FuS-60" vertex="1">
          <mxGeometry x="39" width="6" height="6" as="geometry" />
        </mxCell>
        <mxCell id="-1FMtL--xxu45l2r8FuS-64" value="" style="endArrow=classic;html=1;rounded=0;exitX=0.5;exitY=0;exitDx=0;exitDy=0;" parent="1" source="-1FMtL--xxu45l2r8FuS-12" edge="1">
          <mxGeometry width="50" height="50" relative="1" as="geometry">
            <mxPoint x="430" y="520" as="sourcePoint" />
            <mxPoint x="340" y="340" as="targetPoint" />
          </mxGeometry>
        </mxCell>
        <mxCell id="-1FMtL--xxu45l2r8FuS-65" value="" style="group" parent="1" vertex="1" connectable="0">
          <mxGeometry x="391" y="464" width="23" height="23" as="geometry" />
        </mxCell>
        <mxCell id="-1FMtL--xxu45l2r8FuS-66" value="" style="ellipse;whiteSpace=wrap;html=1;aspect=fixed;fillColor=default;strokeColor=none;" parent="-1FMtL--xxu45l2r8FuS-65" vertex="1">
          <mxGeometry width="23" height="23" as="geometry" />
        </mxCell>
        <mxCell id="-1FMtL--xxu45l2r8FuS-67" value="" style="shape=image;html=1;verticalAlign=top;verticalLabelPosition=bottom;labelBackgroundColor=#ffffff;imageAspect=0;aspect=fixed;image=https://cdn0.iconfinder.com/data/icons/basic-e-commerce-line/48/Receipt_success-128.png" parent="-1FMtL--xxu45l2r8FuS-65" vertex="1">
          <mxGeometry x="2.8800000000000026" y="2.8799999999999955" width="17.25" height="17.25" as="geometry" />
        </mxCell>
        <mxCell id="-1FMtL--xxu45l2r8FuS-68" value="" style="group" parent="1" vertex="1" connectable="0">
          <mxGeometry x="262" y="464" width="23" height="23" as="geometry" />
        </mxCell>
        <mxCell id="-1FMtL--xxu45l2r8FuS-69" value="" style="ellipse;whiteSpace=wrap;html=1;aspect=fixed;fillColor=default;strokeColor=none;" parent="-1FMtL--xxu45l2r8FuS-68" vertex="1">
          <mxGeometry width="23" height="23" as="geometry" />
        </mxCell>
        <mxCell id="-1FMtL--xxu45l2r8FuS-70" value="" style="shape=image;html=1;verticalAlign=top;verticalLabelPosition=bottom;labelBackgroundColor=#ffffff;imageAspect=0;aspect=fixed;image=https://cdn0.iconfinder.com/data/icons/basic-e-commerce-line/48/Receipt_success-128.png" parent="-1FMtL--xxu45l2r8FuS-68" vertex="1">
          <mxGeometry x="2.8800000000000026" y="2.8799999999999955" width="17.25" height="17.25" as="geometry" />
        </mxCell>
        <mxCell id="-1FMtL--xxu45l2r8FuS-71" value="&lt;div style=&quot;line-height: 60%;&quot;&gt;&lt;h3 style=&quot;line-height: 60%;&quot;&gt;&lt;font style=&quot;color: light-dark(rgb(130, 179, 102), rgb(105, 70, 122));&quot;&gt;Validators&lt;/font&gt;&lt;/h3&gt;&lt;div&gt;&lt;font&gt;&lt;font color=&quot;#82b366&quot;&gt;{Vi}&lt;/font&gt;&lt;/font&gt;&lt;/div&gt;&lt;/div&gt;" style="text;html=1;align=center;verticalAlign=middle;resizable=0;points=[];autosize=1;strokeColor=none;fillColor=none;" parent="1" vertex="1">
          <mxGeometry x="33.620000000000005" y="285" width="90" height="60" as="geometry" />
        </mxCell>
        <mxCell id="-1FMtL--xxu45l2r8FuS-72" value="" style="group" parent="1" vertex="1" connectable="0">
          <mxGeometry x="261" y="271" width="50.620000000000005" height="80" as="geometry" />
        </mxCell>
        <mxCell id="-1FMtL--xxu45l2r8FuS-73" value="Header" style="rounded=1;whiteSpace=wrap;html=1;fontStyle=1" parent="-1FMtL--xxu45l2r8FuS-72" vertex="1">
          <mxGeometry x="0.6200000000000045" width="50" height="20" as="geometry" />
        </mxCell>
        <mxCell id="-1FMtL--xxu45l2r8FuS-74" value="" style="group" parent="-1FMtL--xxu45l2r8FuS-72" vertex="1" connectable="0">
          <mxGeometry y="20" width="50.38" height="60" as="geometry" />
        </mxCell>
        <mxCell id="-1FMtL--xxu45l2r8FuS-75" value="" style="rounded=1;whiteSpace=wrap;html=1;" parent="-1FMtL--xxu45l2r8FuS-74" vertex="1">
          <mxGeometry width="50.38" height="60" as="geometry" />
        </mxCell>
        <mxCell id="-1FMtL--xxu45l2r8FuS-76" value="" style="shape=image;html=1;verticalAlign=top;verticalLabelPosition=bottom;labelBackgroundColor=#ffffff;imageAspect=0;aspect=fixed;image=https://cdn0.iconfinder.com/data/icons/basic-e-commerce-line/48/Receipt_success-128.png" parent="-1FMtL--xxu45l2r8FuS-74" vertex="1">
          <mxGeometry x="17.95207333333333" y="1.75" width="14.48425" height="14.48425" as="geometry" />
        </mxCell>
        <mxCell id="-1FMtL--xxu45l2r8FuS-77" value="" style="shape=image;html=1;verticalAlign=top;verticalLabelPosition=bottom;labelBackgroundColor=#ffffff;imageAspect=0;aspect=fixed;image=https://cdn0.iconfinder.com/data/icons/basic-e-commerce-line/48/Receipt_success-128.png" parent="-1FMtL--xxu45l2r8FuS-74" vertex="1">
          <mxGeometry x="17.95207333333333" y="18" width="14.48425" height="14.48425" as="geometry" />
        </mxCell>
        <mxCell id="-1FMtL--xxu45l2r8FuS-78" value="" style="shape=image;html=1;verticalAlign=top;verticalLabelPosition=bottom;labelBackgroundColor=#ffffff;imageAspect=0;aspect=fixed;image=https://cdn0.iconfinder.com/data/icons/basic-e-commerce-line/48/Receipt_success-128.png" parent="-1FMtL--xxu45l2r8FuS-74" vertex="1">
          <mxGeometry x="17.95207333333333" y="42.75" width="14.48425" height="14.48425" as="geometry" />
        </mxCell>
        <mxCell id="-1FMtL--xxu45l2r8FuS-79" value="..." style="text;html=1;align=center;verticalAlign=middle;resizable=0;points=[];autosize=1;strokeColor=none;fillColor=none;" parent="-1FMtL--xxu45l2r8FuS-74" vertex="1">
          <mxGeometry x="9.595" y="20.25" width="30" height="30" as="geometry" />
        </mxCell>
        <mxCell id="-1FMtL--xxu45l2r8FuS-80" value="&lt;span style=&quot;font-size: 11px;&quot;&gt;Proposer selected for block n at 2 block ahead&lt;/span&gt;" style="ellipse;whiteSpace=wrap;html=1;strokeColor=none;" parent="1" vertex="1">
          <mxGeometry x="145.5" y="170" width="130.12" height="40" as="geometry" />
        </mxCell>
        <mxCell id="-1FMtL--xxu45l2r8FuS-81" value="&lt;span style=&quot;font-size: 11px;&quot;&gt;Pack the transaction and publish on chain&lt;/span&gt;" style="ellipse;whiteSpace=wrap;html=1;strokeColor=none;" parent="1" vertex="1">
          <mxGeometry x="299.12" y="170" width="110" height="40" as="geometry" />
        </mxCell>
        <mxCell id="-1FMtL--xxu45l2r8FuS-82" value="&lt;b&gt;Block n-1&lt;/b&gt;" style="rounded=0;whiteSpace=wrap;html=1;strokeWidth=2;" parent="1" vertex="1">
          <mxGeometry x="731.5" y="70" width="80" height="60" as="geometry" />
        </mxCell>
        <mxCell id="-1FMtL--xxu45l2r8FuS-83" value="&lt;b&gt;Block n&lt;/b&gt;" style="rounded=0;whiteSpace=wrap;html=1;strokeWidth=2;" parent="1" vertex="1">
          <mxGeometry x="851.5" y="70" width="80" height="60" as="geometry" />
        </mxCell>
        <mxCell id="-1FMtL--xxu45l2r8FuS-84" value="" style="endArrow=none;dashed=1;html=1;rounded=0;entryX=0;entryY=0.5;entryDx=0;entryDy=0;" parent="1" source="-1FMtL--xxu45l2r8FuS-82" target="-1FMtL--xxu45l2r8FuS-83" edge="1">
          <mxGeometry width="50" height="50" relative="1" as="geometry">
            <mxPoint x="651.5" y="100" as="sourcePoint" />
            <mxPoint x="711.5" y="99.5" as="targetPoint" />
          </mxGeometry>
        </mxCell>
        <mxCell id="-1FMtL--xxu45l2r8FuS-85" value="&lt;b&gt;Block n-2&lt;/b&gt;" style="rounded=0;whiteSpace=wrap;html=1;strokeWidth=2;" parent="1" vertex="1">
          <mxGeometry x="611.5" y="70" width="80" height="60" as="geometry" />
        </mxCell>
        <mxCell id="-1FMtL--xxu45l2r8FuS-86" value="" style="endArrow=none;dashed=1;html=1;rounded=0;exitX=1;exitY=0.5;exitDx=0;exitDy=0;entryX=0;entryY=0.5;entryDx=0;entryDy=0;" parent="1" source="-1FMtL--xxu45l2r8FuS-85" target="-1FMtL--xxu45l2r8FuS-82" edge="1">
          <mxGeometry width="50" height="50" relative="1" as="geometry">
            <mxPoint x="821.5" y="110" as="sourcePoint" />
            <mxPoint x="731.5" y="100" as="targetPoint" />
          </mxGeometry>
        </mxCell>
        <mxCell id="-1FMtL--xxu45l2r8FuS-87" value="" style="shape=curlyBracket;whiteSpace=wrap;html=1;rounded=1;labelPosition=left;verticalLabelPosition=middle;align=right;verticalAlign=middle;rotation=90;strokeWidth=2;" parent="1" vertex="1">
          <mxGeometry x="672" y="-78.5" width="20" height="269" as="geometry" />
        </mxCell>
        <mxCell id="-1FMtL--xxu45l2r8FuS-88" value="&lt;b&gt;Confirmed&lt;/b&gt;" style="text;html=1;align=center;verticalAlign=middle;resizable=0;points=[];autosize=1;strokeColor=none;fillColor=none;" parent="1" vertex="1">
          <mxGeometry x="645.5" y="25" width="80" height="30" as="geometry" />
        </mxCell>
        <mxCell id="-1FMtL--xxu45l2r8FuS-89" value="" style="shape=actor;whiteSpace=wrap;html=1;strokeWidth=2;fillColor=#e1d5e7;strokeColor=#9673a6;" parent="1" vertex="1">
          <mxGeometry x="757" y="191" width="40" height="50" as="geometry" />
        </mxCell>
        <mxCell id="-1FMtL--xxu45l2r8FuS-90" value="" style="shape=actor;whiteSpace=wrap;html=1;strokeWidth=2;fillColor=#dae8fc;strokeColor=#6c8ebf;" parent="1" vertex="1">
          <mxGeometry x="875.12" y="377" width="40" height="50" as="geometry" />
        </mxCell>
        <mxCell id="-1FMtL--xxu45l2r8FuS-91" value="" style="shape=actor;whiteSpace=wrap;html=1;strokeWidth=2;fillColor=#dae8fc;strokeColor=#6c8ebf;" parent="1" vertex="1">
          <mxGeometry x="701.12" y="377" width="40" height="50" as="geometry" />
        </mxCell>
        <mxCell id="-1FMtL--xxu45l2r8FuS-92" value="" style="shape=actor;whiteSpace=wrap;html=1;strokeWidth=2;fillColor=#dae8fc;strokeColor=#6c8ebf;" parent="1" vertex="1">
          <mxGeometry x="581.12" y="377" width="40" height="50" as="geometry" />
        </mxCell>
        <mxCell id="-1FMtL--xxu45l2r8FuS-93" value="" style="shape=actor;whiteSpace=wrap;html=1;strokeWidth=2;fillColor=#fff2cc;strokeColor=#d6b656;" parent="1" vertex="1">
          <mxGeometry x="581.12" y="521" width="40" height="50" as="geometry" />
        </mxCell>
        <mxCell id="-1FMtL--xxu45l2r8FuS-94" value="" style="shape=actor;whiteSpace=wrap;html=1;strokeWidth=2;fillColor=#fff2cc;strokeColor=#d6b656;" parent="1" vertex="1">
          <mxGeometry x="760.12" y="521" width="40" height="50" as="geometry" />
        </mxCell>
        <mxCell id="-1FMtL--xxu45l2r8FuS-95" value="" style="shape=actor;whiteSpace=wrap;html=1;strokeWidth=2;fillColor=#fff2cc;strokeColor=#d6b656;" parent="1" vertex="1">
          <mxGeometry x="702.62" y="521" width="40" height="50" as="geometry" />
        </mxCell>
        <mxCell id="-1FMtL--xxu45l2r8FuS-96" value="" style="shape=actor;whiteSpace=wrap;html=1;strokeWidth=2;fillColor=#fff2cc;strokeColor=#d6b656;" parent="1" vertex="1">
          <mxGeometry x="641.12" y="521" width="40" height="50" as="geometry" />
        </mxCell>
        <mxCell id="-1FMtL--xxu45l2r8FuS-97" value="" style="shape=actor;whiteSpace=wrap;html=1;strokeWidth=2;fillColor=#fff2cc;strokeColor=#d6b656;" parent="1" vertex="1">
          <mxGeometry x="875.12" y="521" width="40" height="50" as="geometry" />
        </mxCell>
        <mxCell id="-1FMtL--xxu45l2r8FuS-98" value="" style="group" parent="1" vertex="1" connectable="0">
          <mxGeometry x="568.5" y="100" width="26" height="6" as="geometry" />
        </mxCell>
        <mxCell id="-1FMtL--xxu45l2r8FuS-99" value="" style="ellipse;shape=doubleEllipse;whiteSpace=wrap;html=1;aspect=fixed;fillColor=#000000;" parent="-1FMtL--xxu45l2r8FuS-98" vertex="1">
          <mxGeometry x="-1" width="6" height="6" as="geometry" />
        </mxCell>
        <mxCell id="-1FMtL--xxu45l2r8FuS-100" value="" style="ellipse;shape=doubleEllipse;whiteSpace=wrap;html=1;aspect=fixed;fillColor=#000000;" parent="-1FMtL--xxu45l2r8FuS-98" vertex="1">
          <mxGeometry x="10" width="6" height="6" as="geometry" />
        </mxCell>
        <mxCell id="-1FMtL--xxu45l2r8FuS-101" value="" style="ellipse;shape=doubleEllipse;whiteSpace=wrap;html=1;aspect=fixed;fillColor=#000000;" parent="-1FMtL--xxu45l2r8FuS-98" vertex="1">
          <mxGeometry x="21" width="6" height="6" as="geometry" />
        </mxCell>
        <mxCell id="-1FMtL--xxu45l2r8FuS-102" value="" style="group" parent="1" vertex="1" connectable="0">
          <mxGeometry x="832.12" y="413" width="26" height="6" as="geometry" />
        </mxCell>
        <mxCell id="-1FMtL--xxu45l2r8FuS-103" value="" style="ellipse;shape=doubleEllipse;whiteSpace=wrap;html=1;aspect=fixed;fillColor=#000000;" parent="-1FMtL--xxu45l2r8FuS-102" vertex="1">
          <mxGeometry x="-1" width="6" height="6" as="geometry" />
        </mxCell>
        <mxCell id="-1FMtL--xxu45l2r8FuS-104" value="" style="ellipse;shape=doubleEllipse;whiteSpace=wrap;html=1;aspect=fixed;fillColor=#000000;" parent="-1FMtL--xxu45l2r8FuS-102" vertex="1">
          <mxGeometry x="10" width="6" height="6" as="geometry" />
        </mxCell>
        <mxCell id="-1FMtL--xxu45l2r8FuS-105" value="" style="ellipse;shape=doubleEllipse;whiteSpace=wrap;html=1;aspect=fixed;fillColor=#000000;" parent="-1FMtL--xxu45l2r8FuS-102" vertex="1">
          <mxGeometry x="21" width="6" height="6" as="geometry" />
        </mxCell>
        <mxCell id="-1FMtL--xxu45l2r8FuS-106" value="" style="endArrow=classic;html=1;rounded=0;exitX=0.5;exitY=0;exitDx=0;exitDy=0;entryX=0.5;entryY=1;entryDx=0;entryDy=0;" parent="1" source="-1FMtL--xxu45l2r8FuS-92" target="-1FMtL--xxu45l2r8FuS-89" edge="1">
          <mxGeometry width="50" height="50" relative="1" as="geometry">
            <mxPoint x="662" y="301" as="sourcePoint" />
            <mxPoint x="712" y="251" as="targetPoint" />
            <Array as="points" />
          </mxGeometry>
        </mxCell>
        <mxCell id="-1FMtL--xxu45l2r8FuS-107" value="" style="endArrow=classic;html=1;rounded=0;exitX=0.5;exitY=0;exitDx=0;exitDy=0;" parent="1" source="-1FMtL--xxu45l2r8FuS-91" edge="1">
          <mxGeometry width="50" height="50" relative="1" as="geometry">
            <mxPoint x="727" y="291" as="sourcePoint" />
            <mxPoint x="777" y="241" as="targetPoint" />
          </mxGeometry>
        </mxCell>
        <mxCell id="-1FMtL--xxu45l2r8FuS-108" value="" style="endArrow=classic;html=1;rounded=0;exitX=0.335;exitY=0.068;exitDx=0;exitDy=0;strokeWidth=1;exitPerimeter=0;strokeColor=#000000;" parent="1" source="-1FMtL--xxu45l2r8FuS-90" edge="1">
          <mxGeometry width="50" height="50" relative="1" as="geometry">
            <mxPoint x="817" y="421" as="sourcePoint" />
            <mxPoint x="777" y="241" as="targetPoint" />
            <Array as="points">
              <mxPoint x="810" y="339" />
            </Array>
          </mxGeometry>
        </mxCell>
        <mxCell id="-1FMtL--xxu45l2r8FuS-109" value="&lt;b&gt;Header&lt;/b&gt;" style="rounded=1;whiteSpace=wrap;html=1;" parent="1" vertex="1">
          <mxGeometry x="629.12" y="371" width="50" height="20" as="geometry" />
        </mxCell>
        <mxCell id="-1FMtL--xxu45l2r8FuS-110" value="" style="endArrow=classic;html=1;rounded=0;exitX=0.9;exitY=0.5;exitDx=0;exitDy=0;exitPerimeter=0;entryX=0.5;entryY=1;entryDx=0;entryDy=0;" parent="1" source="-1FMtL--xxu45l2r8FuS-89" target="-1FMtL--xxu45l2r8FuS-83" edge="1">
          <mxGeometry width="50" height="50" relative="1" as="geometry">
            <mxPoint x="817" y="321" as="sourcePoint" />
            <mxPoint x="867" y="271" as="targetPoint" />
          </mxGeometry>
        </mxCell>
        <mxCell id="-1FMtL--xxu45l2r8FuS-111" value="" style="endArrow=classic;html=1;rounded=0;exitX=0.75;exitY=1;exitDx=0;exitDy=0;entryX=0.1;entryY=0.5;entryDx=0;entryDy=0;entryPerimeter=0;" parent="1" source="-1FMtL--xxu45l2r8FuS-85" target="-1FMtL--xxu45l2r8FuS-89" edge="1">
          <mxGeometry width="50" height="50" relative="1" as="geometry">
            <mxPoint x="817" y="321" as="sourcePoint" />
            <mxPoint x="867" y="271" as="targetPoint" />
          </mxGeometry>
        </mxCell>
        <mxCell id="-1FMtL--xxu45l2r8FuS-112" value="" style="group" parent="1" vertex="1" connectable="0">
          <mxGeometry x="829.12" y="555" width="26" height="6" as="geometry" />
        </mxCell>
        <mxCell id="-1FMtL--xxu45l2r8FuS-113" value="" style="ellipse;shape=doubleEllipse;whiteSpace=wrap;html=1;aspect=fixed;fillColor=#000000;" parent="-1FMtL--xxu45l2r8FuS-112" vertex="1">
          <mxGeometry x="-1" width="6" height="6" as="geometry" />
        </mxCell>
        <mxCell id="-1FMtL--xxu45l2r8FuS-114" value="" style="ellipse;shape=doubleEllipse;whiteSpace=wrap;html=1;aspect=fixed;fillColor=#000000;" parent="-1FMtL--xxu45l2r8FuS-112" vertex="1">
          <mxGeometry x="10" width="6" height="6" as="geometry" />
        </mxCell>
        <mxCell id="-1FMtL--xxu45l2r8FuS-115" value="" style="ellipse;shape=doubleEllipse;whiteSpace=wrap;html=1;aspect=fixed;fillColor=#000000;" parent="-1FMtL--xxu45l2r8FuS-112" vertex="1">
          <mxGeometry x="21" width="6" height="6" as="geometry" />
        </mxCell>
        <mxCell id="-1FMtL--xxu45l2r8FuS-116" value="" style="shape=actor;whiteSpace=wrap;html=1;strokeWidth=2;fillColor=#e1d5e7;strokeColor=#9673a6;" parent="1" vertex="1">
          <mxGeometry x="651.5" y="191" width="40" height="50" as="geometry" />
        </mxCell>
        <mxCell id="-1FMtL--xxu45l2r8FuS-117" value="" style="group" parent="1" vertex="1" connectable="0">
          <mxGeometry x="712.25" y="223" width="26" height="6" as="geometry" />
        </mxCell>
        <mxCell id="-1FMtL--xxu45l2r8FuS-118" value="" style="ellipse;shape=doubleEllipse;whiteSpace=wrap;html=1;aspect=fixed;fillColor=#000000;" parent="-1FMtL--xxu45l2r8FuS-117" vertex="1">
          <mxGeometry x="-1" width="6" height="6" as="geometry" />
        </mxCell>
        <mxCell id="-1FMtL--xxu45l2r8FuS-119" value="" style="ellipse;shape=doubleEllipse;whiteSpace=wrap;html=1;aspect=fixed;fillColor=#000000;" parent="-1FMtL--xxu45l2r8FuS-117" vertex="1">
          <mxGeometry x="10" width="6" height="6" as="geometry" />
        </mxCell>
        <mxCell id="-1FMtL--xxu45l2r8FuS-120" value="" style="ellipse;shape=doubleEllipse;whiteSpace=wrap;html=1;aspect=fixed;fillColor=#000000;" parent="-1FMtL--xxu45l2r8FuS-117" vertex="1">
          <mxGeometry x="21" width="6" height="6" as="geometry" />
        </mxCell>
        <mxCell id="-1FMtL--xxu45l2r8FuS-121" value="" style="endArrow=classic;html=1;rounded=0;entryX=0.5;entryY=1;entryDx=0;entryDy=0;exitX=0.5;exitY=0;exitDx=0;exitDy=0;" parent="1" source="-1FMtL--xxu45l2r8FuS-93" target="-1FMtL--xxu45l2r8FuS-91" edge="1">
          <mxGeometry width="50" height="50" relative="1" as="geometry">
            <mxPoint x="601.37" y="496" as="sourcePoint" />
            <mxPoint x="716.87" y="431" as="targetPoint" />
          </mxGeometry>
        </mxCell>
        <mxCell id="-1FMtL--xxu45l2r8FuS-122" value="" style="endArrow=classic;html=1;rounded=0;entryX=0.5;entryY=1;entryDx=0;entryDy=0;exitX=0.5;exitY=0;exitDx=0;exitDy=0;" parent="1" source="-1FMtL--xxu45l2r8FuS-96" target="-1FMtL--xxu45l2r8FuS-92" edge="1">
          <mxGeometry width="50" height="50" relative="1" as="geometry">
            <mxPoint x="661.37" y="496" as="sourcePoint" />
            <mxPoint x="711.37" y="446" as="targetPoint" />
          </mxGeometry>
        </mxCell>
        <mxCell id="-1FMtL--xxu45l2r8FuS-123" value="" style="endArrow=classic;html=1;rounded=0;entryX=0.5;entryY=1;entryDx=0;entryDy=0;exitX=0.5;exitY=0;exitDx=0;exitDy=0;" parent="1" source="-1FMtL--xxu45l2r8FuS-93" target="-1FMtL--xxu45l2r8FuS-92" edge="1">
          <mxGeometry width="50" height="50" relative="1" as="geometry">
            <mxPoint x="601.37" y="496" as="sourcePoint" />
            <mxPoint x="606.87" y="431" as="targetPoint" />
          </mxGeometry>
        </mxCell>
        <mxCell id="-1FMtL--xxu45l2r8FuS-124" value="" style="endArrow=classic;html=1;rounded=0;exitX=0.5;exitY=0;exitDx=0;exitDy=0;entryX=0.5;entryY=1;entryDx=0;entryDy=0;" parent="1" source="-1FMtL--xxu45l2r8FuS-95" target="-1FMtL--xxu45l2r8FuS-91" edge="1">
          <mxGeometry width="50" height="50" relative="1" as="geometry">
            <mxPoint x="696.87" y="501" as="sourcePoint" />
            <mxPoint x="746.87" y="451" as="targetPoint" />
          </mxGeometry>
        </mxCell>
        <mxCell id="-1FMtL--xxu45l2r8FuS-125" value="" style="endArrow=classic;html=1;rounded=0;exitX=0.5;exitY=0;exitDx=0;exitDy=0;" parent="1" source="-1FMtL--xxu45l2r8FuS-95" edge="1">
          <mxGeometry width="50" height="50" relative="1" as="geometry">
            <mxPoint x="716.87" y="497" as="sourcePoint" />
            <mxPoint x="846.87" y="431" as="targetPoint" />
          </mxGeometry>
        </mxCell>
        <mxCell id="-1FMtL--xxu45l2r8FuS-126" value="" style="endArrow=classic;html=1;rounded=0;exitX=0.5;exitY=0;exitDx=0;exitDy=0;entryX=0.5;entryY=1;entryDx=0;entryDy=0;" parent="1" source="-1FMtL--xxu45l2r8FuS-94" target="-1FMtL--xxu45l2r8FuS-90" edge="1">
          <mxGeometry width="50" height="50" relative="1" as="geometry">
            <mxPoint x="796.87" y="501" as="sourcePoint" />
            <mxPoint x="846.87" y="451" as="targetPoint" />
          </mxGeometry>
        </mxCell>
        <mxCell id="-1FMtL--xxu45l2r8FuS-127" value="" style="endArrow=classic;html=1;rounded=0;exitX=0.5;exitY=0;exitDx=0;exitDy=0;" parent="1" source="-1FMtL--xxu45l2r8FuS-94" edge="1">
          <mxGeometry width="50" height="50" relative="1" as="geometry">
            <mxPoint x="776.87" y="501" as="sourcePoint" />
            <mxPoint x="846.87" y="431" as="targetPoint" />
          </mxGeometry>
        </mxCell>
        <mxCell id="-1FMtL--xxu45l2r8FuS-128" value="" style="endArrow=classic;html=1;rounded=0;exitX=0.5;exitY=0;exitDx=0;exitDy=0;entryX=0.5;entryY=1;entryDx=0;entryDy=0;" parent="1" source="-1FMtL--xxu45l2r8FuS-94" target="-1FMtL--xxu45l2r8FuS-91" edge="1">
          <mxGeometry width="50" height="50" relative="1" as="geometry">
            <mxPoint x="671.37" y="477" as="sourcePoint" />
            <mxPoint x="721.37" y="427" as="targetPoint" />
          </mxGeometry>
        </mxCell>
        <mxCell id="-1FMtL--xxu45l2r8FuS-129" value="" style="endArrow=classic;html=1;rounded=0;exitX=0.5;exitY=0;exitDx=0;exitDy=0;entryX=0.5;entryY=1;entryDx=0;entryDy=0;" parent="1" source="-1FMtL--xxu45l2r8FuS-97" target="-1FMtL--xxu45l2r8FuS-90" edge="1">
          <mxGeometry width="50" height="50" relative="1" as="geometry">
            <mxPoint x="875.12" y="496" as="sourcePoint" />
            <mxPoint x="906.87" y="451" as="targetPoint" />
          </mxGeometry>
        </mxCell>
        <mxCell id="-1FMtL--xxu45l2r8FuS-130" value="&lt;div style=&quot;line-height: 60%;&quot;&gt;&lt;h3 style=&quot;line-height: 60%;&quot;&gt;&lt;font style=&quot;color: light-dark(rgb(151, 115, 166), rgb(105, 70, 122));&quot;&gt;Proposers&lt;/font&gt;&lt;/h3&gt;&lt;div&gt;&lt;font color=&quot;#9773a6&quot;&gt;{P&lt;sub style=&quot;line-height: 60%;&quot;&gt;i&lt;/sub&gt;&lt;span style=&quot;font-size: 10px; line-height: 60%;&quot;&gt;}&lt;/span&gt;&lt;/font&gt;&lt;/div&gt;&lt;/div&gt;" style="text;html=1;align=center;verticalAlign=middle;resizable=0;points=[];autosize=1;strokeColor=none;fillColor=none;" parent="1" vertex="1">
          <mxGeometry x="504.5" y="186" width="90" height="60" as="geometry" />
        </mxCell>
        <mxCell id="-1FMtL--xxu45l2r8FuS-131" value="&lt;div style=&quot;line-height: 60%;&quot;&gt;&lt;h3 style=&quot;line-height: 60%;&quot;&gt;&lt;font style=&quot;color: light-dark(rgb(110, 145, 191), rgb(105, 70, 122));&quot;&gt;Builders&lt;/font&gt;&lt;/h3&gt;&lt;div&gt;&lt;font&gt;&lt;font color=&quot;#6e91bf&quot;&gt;{Bi}&lt;/font&gt;&lt;/font&gt;&lt;/div&gt;&lt;/div&gt;" style="text;html=1;align=center;verticalAlign=middle;resizable=0;points=[];autosize=1;strokeColor=none;fillColor=none;" parent="1" vertex="1">
          <mxGeometry x="504.5" y="372" width="80" height="60" as="geometry" />
        </mxCell>
        <mxCell id="-1FMtL--xxu45l2r8FuS-132" value="&lt;div style=&quot;line-height: 60%;&quot;&gt;&lt;h3 style=&quot;line-height: 60%;&quot;&gt;&lt;font style=&quot;color: light-dark(rgb(214, 182, 86), rgb(105, 70, 122));&quot;&gt;Users&lt;/font&gt;&lt;/h3&gt;&lt;div&gt;&lt;font&gt;&lt;font color=&quot;#d6b656&quot;&gt;{Ui}&lt;/font&gt;&lt;/font&gt;&lt;/div&gt;&lt;/div&gt;" style="text;html=1;align=center;verticalAlign=middle;resizable=0;points=[];autosize=1;strokeColor=none;fillColor=none;" parent="1" vertex="1">
          <mxGeometry x="512.12" y="511" width="60" height="60" as="geometry" />
        </mxCell>
        <mxCell id="-1FMtL--xxu45l2r8FuS-133" value="" style="endArrow=classic;html=1;rounded=0;exitX=0.929;exitY=1.036;exitDx=0;exitDy=0;exitPerimeter=0;strokeWidth=1;entryX=0.5;entryY=0;entryDx=0;entryDy=0;strokeColor=#000000;" parent="1" source="-1FMtL--xxu45l2r8FuS-89" target="-1FMtL--xxu45l2r8FuS-90" edge="1">
          <mxGeometry width="50" height="50" relative="1" as="geometry">
            <mxPoint x="817" y="321" as="sourcePoint" />
            <mxPoint x="897" y="291" as="targetPoint" />
          </mxGeometry>
        </mxCell>
        <mxCell id="-1FMtL--xxu45l2r8FuS-134" value="" style="endArrow=classic;html=1;rounded=0;entryX=1;entryY=0.75;entryDx=0;entryDy=0;exitX=0.5;exitY=0;exitDx=0;exitDy=0;strokeWidth=1;strokeColor=#000000;" parent="1" source="-1FMtL--xxu45l2r8FuS-90" target="-1FMtL--xxu45l2r8FuS-89" edge="1">
          <mxGeometry width="50" height="50" relative="1" as="geometry">
            <mxPoint x="906" y="324" as="sourcePoint" />
            <mxPoint x="796" y="314" as="targetPoint" />
            <Array as="points">
              <mxPoint x="896" y="229" />
            </Array>
          </mxGeometry>
        </mxCell>
        <mxCell id="-1FMtL--xxu45l2r8FuS-135" value="" style="group" parent="1" vertex="1" connectable="0">
          <mxGeometry x="619.12" y="464" width="23" height="23" as="geometry" />
        </mxCell>
        <mxCell id="-1FMtL--xxu45l2r8FuS-136" value="" style="ellipse;whiteSpace=wrap;html=1;aspect=fixed;fillColor=default;strokeColor=none;" parent="-1FMtL--xxu45l2r8FuS-135" vertex="1">
          <mxGeometry width="23" height="23" as="geometry" />
        </mxCell>
        <mxCell id="-1FMtL--xxu45l2r8FuS-137" value="" style="shape=image;html=1;verticalAlign=top;verticalLabelPosition=bottom;labelBackgroundColor=#ffffff;imageAspect=0;aspect=fixed;image=https://cdn0.iconfinder.com/data/icons/basic-e-commerce-line/48/Receipt_success-128.png" parent="-1FMtL--xxu45l2r8FuS-135" vertex="1">
          <mxGeometry x="2.8800000000000026" y="2.8799999999999955" width="17.25" height="17.25" as="geometry" />
        </mxCell>
        <mxCell id="-1FMtL--xxu45l2r8FuS-138" value="" style="group" parent="1" vertex="1" connectable="0">
          <mxGeometry x="589.62" y="465.25" width="23" height="23" as="geometry" />
        </mxCell>
        <mxCell id="-1FMtL--xxu45l2r8FuS-139" value="" style="ellipse;whiteSpace=wrap;html=1;aspect=fixed;fillColor=default;strokeColor=none;" parent="-1FMtL--xxu45l2r8FuS-138" vertex="1">
          <mxGeometry width="23" height="23" as="geometry" />
        </mxCell>
        <mxCell id="-1FMtL--xxu45l2r8FuS-140" value="" style="shape=image;html=1;verticalAlign=top;verticalLabelPosition=bottom;labelBackgroundColor=#ffffff;imageAspect=0;aspect=fixed;image=https://cdn0.iconfinder.com/data/icons/basic-e-commerce-line/48/Receipt_success-128.png" parent="-1FMtL--xxu45l2r8FuS-138" vertex="1">
          <mxGeometry x="2.8800000000000026" y="2.8799999999999955" width="17.25" height="17.25" as="geometry" />
        </mxCell>
        <mxCell id="-1FMtL--xxu45l2r8FuS-141" value="" style="group" parent="1" vertex="1" connectable="0">
          <mxGeometry x="646" y="464" width="23" height="23" as="geometry" />
        </mxCell>
        <mxCell id="-1FMtL--xxu45l2r8FuS-142" value="" style="ellipse;whiteSpace=wrap;html=1;aspect=fixed;fillColor=default;strokeColor=none;" parent="-1FMtL--xxu45l2r8FuS-141" vertex="1">
          <mxGeometry width="23" height="23" as="geometry" />
        </mxCell>
        <mxCell id="-1FMtL--xxu45l2r8FuS-143" value="" style="shape=image;html=1;verticalAlign=top;verticalLabelPosition=bottom;labelBackgroundColor=#ffffff;imageAspect=0;aspect=fixed;image=https://cdn0.iconfinder.com/data/icons/basic-e-commerce-line/48/Receipt_success-128.png" parent="-1FMtL--xxu45l2r8FuS-141" vertex="1">
          <mxGeometry x="2.8800000000000026" y="2.8799999999999955" width="17.25" height="17.25" as="geometry" />
        </mxCell>
        <mxCell id="-1FMtL--xxu45l2r8FuS-144" value="" style="group" parent="1" vertex="1" connectable="0">
          <mxGeometry x="710" y="464" width="23" height="23" as="geometry" />
        </mxCell>
        <mxCell id="-1FMtL--xxu45l2r8FuS-145" value="" style="ellipse;whiteSpace=wrap;html=1;aspect=fixed;fillColor=default;strokeColor=none;" parent="-1FMtL--xxu45l2r8FuS-144" vertex="1">
          <mxGeometry width="23" height="23" as="geometry" />
        </mxCell>
        <mxCell id="-1FMtL--xxu45l2r8FuS-146" value="" style="shape=image;html=1;verticalAlign=top;verticalLabelPosition=bottom;labelBackgroundColor=#ffffff;imageAspect=0;aspect=fixed;image=https://cdn0.iconfinder.com/data/icons/basic-e-commerce-line/48/Receipt_success-128.png" parent="-1FMtL--xxu45l2r8FuS-144" vertex="1">
          <mxGeometry x="2.8800000000000026" y="2.8799999999999955" width="17.25" height="17.25" as="geometry" />
        </mxCell>
        <mxCell id="-1FMtL--xxu45l2r8FuS-147" value="" style="group" parent="1" vertex="1" connectable="0">
          <mxGeometry x="740" y="464" width="23" height="23" as="geometry" />
        </mxCell>
        <mxCell id="-1FMtL--xxu45l2r8FuS-148" value="" style="ellipse;whiteSpace=wrap;html=1;aspect=fixed;fillColor=default;strokeColor=none;" parent="-1FMtL--xxu45l2r8FuS-147" vertex="1">
          <mxGeometry width="23" height="23" as="geometry" />
        </mxCell>
        <mxCell id="-1FMtL--xxu45l2r8FuS-149" value="" style="shape=image;html=1;verticalAlign=top;verticalLabelPosition=bottom;labelBackgroundColor=#ffffff;imageAspect=0;aspect=fixed;image=https://cdn0.iconfinder.com/data/icons/basic-e-commerce-line/48/Receipt_success-128.png" parent="-1FMtL--xxu45l2r8FuS-147" vertex="1">
          <mxGeometry x="2.8800000000000026" y="2.8799999999999955" width="17.25" height="17.25" as="geometry" />
        </mxCell>
        <mxCell id="-1FMtL--xxu45l2r8FuS-150" value="" style="group" parent="1" vertex="1" connectable="0">
          <mxGeometry x="776" y="464" width="23" height="23" as="geometry" />
        </mxCell>
        <mxCell id="-1FMtL--xxu45l2r8FuS-151" value="" style="ellipse;whiteSpace=wrap;html=1;aspect=fixed;fillColor=default;strokeColor=none;" parent="-1FMtL--xxu45l2r8FuS-150" vertex="1">
          <mxGeometry width="23" height="23" as="geometry" />
        </mxCell>
        <mxCell id="-1FMtL--xxu45l2r8FuS-152" value="" style="shape=image;html=1;verticalAlign=top;verticalLabelPosition=bottom;labelBackgroundColor=#ffffff;imageAspect=0;aspect=fixed;image=https://cdn0.iconfinder.com/data/icons/basic-e-commerce-line/48/Receipt_success-128.png" parent="-1FMtL--xxu45l2r8FuS-150" vertex="1">
          <mxGeometry x="2.8800000000000026" y="2.8799999999999955" width="17.25" height="17.25" as="geometry" />
        </mxCell>
        <mxCell id="-1FMtL--xxu45l2r8FuS-153" value="" style="group" parent="1" vertex="1" connectable="0">
          <mxGeometry x="803" y="464" width="23" height="23" as="geometry" />
        </mxCell>
        <mxCell id="-1FMtL--xxu45l2r8FuS-154" value="" style="ellipse;whiteSpace=wrap;html=1;aspect=fixed;fillColor=default;strokeColor=none;" parent="-1FMtL--xxu45l2r8FuS-153" vertex="1">
          <mxGeometry width="23" height="23" as="geometry" />
        </mxCell>
        <mxCell id="-1FMtL--xxu45l2r8FuS-155" value="" style="shape=image;html=1;verticalAlign=top;verticalLabelPosition=bottom;labelBackgroundColor=#ffffff;imageAspect=0;aspect=fixed;image=https://cdn0.iconfinder.com/data/icons/basic-e-commerce-line/48/Receipt_success-128.png" parent="-1FMtL--xxu45l2r8FuS-153" vertex="1">
          <mxGeometry x="2.8800000000000026" y="2.8799999999999955" width="17.25" height="17.25" as="geometry" />
        </mxCell>
        <mxCell id="-1FMtL--xxu45l2r8FuS-156" value="" style="group" parent="1" vertex="1" connectable="0">
          <mxGeometry x="826" y="464" width="23" height="23" as="geometry" />
        </mxCell>
        <mxCell id="-1FMtL--xxu45l2r8FuS-157" value="" style="ellipse;whiteSpace=wrap;html=1;aspect=fixed;fillColor=default;strokeColor=none;" parent="-1FMtL--xxu45l2r8FuS-156" vertex="1">
          <mxGeometry width="23" height="23" as="geometry" />
        </mxCell>
        <mxCell id="-1FMtL--xxu45l2r8FuS-158" value="" style="shape=image;html=1;verticalAlign=top;verticalLabelPosition=bottom;labelBackgroundColor=#ffffff;imageAspect=0;aspect=fixed;image=https://cdn0.iconfinder.com/data/icons/basic-e-commerce-line/48/Receipt_success-128.png" parent="-1FMtL--xxu45l2r8FuS-156" vertex="1">
          <mxGeometry x="2.8800000000000026" y="2.8799999999999955" width="17.25" height="17.25" as="geometry" />
        </mxCell>
        <mxCell id="-1FMtL--xxu45l2r8FuS-159" value="" style="group" parent="1" vertex="1" connectable="0">
          <mxGeometry x="883" y="464" width="23" height="23" as="geometry" />
        </mxCell>
        <mxCell id="-1FMtL--xxu45l2r8FuS-160" value="" style="ellipse;whiteSpace=wrap;html=1;aspect=fixed;fillColor=default;strokeColor=none;" parent="-1FMtL--xxu45l2r8FuS-159" vertex="1">
          <mxGeometry width="23" height="23" as="geometry" />
        </mxCell>
        <mxCell id="-1FMtL--xxu45l2r8FuS-161" value="" style="shape=image;html=1;verticalAlign=top;verticalLabelPosition=bottom;labelBackgroundColor=#ffffff;imageAspect=0;aspect=fixed;image=https://cdn0.iconfinder.com/data/icons/basic-e-commerce-line/48/Receipt_success-128.png" parent="-1FMtL--xxu45l2r8FuS-159" vertex="1">
          <mxGeometry x="2.8800000000000026" y="2.8799999999999955" width="17.25" height="17.25" as="geometry" />
        </mxCell>
        <mxCell id="-1FMtL--xxu45l2r8FuS-162" value="" style="group" parent="1" vertex="1" connectable="0">
          <mxGeometry x="626" y="314" width="75" height="40" as="geometry" />
        </mxCell>
        <mxCell id="-1FMtL--xxu45l2r8FuS-163" value="" style="ellipse;whiteSpace=wrap;html=1;strokeColor=none;" parent="-1FMtL--xxu45l2r8FuS-162" vertex="1">
          <mxGeometry x="7.560000000000002" y="4" width="47.56" height="33" as="geometry" />
        </mxCell>
        <mxCell id="-1FMtL--xxu45l2r8FuS-164" value="&lt;font style=&quot;font-size: 11px;&quot;&gt;Submit&lt;/font&gt;&lt;div&gt;&lt;font style=&quot;font-size: 11px;&quot;&gt;header &amp;amp; bid&lt;/font&gt;&lt;/div&gt;" style="text;html=1;align=center;verticalAlign=middle;resizable=0;points=[];autosize=1;fillColor=none;" parent="-1FMtL--xxu45l2r8FuS-162" vertex="1">
          <mxGeometry x="-15" width="90" height="40" as="geometry" />
        </mxCell>
        <mxCell id="-1FMtL--xxu45l2r8FuS-165" value="" style="group" parent="1" vertex="1" connectable="0">
          <mxGeometry x="704" y="314" width="75" height="40" as="geometry" />
        </mxCell>
        <mxCell id="-1FMtL--xxu45l2r8FuS-166" value="" style="ellipse;whiteSpace=wrap;html=1;strokeColor=none;" parent="-1FMtL--xxu45l2r8FuS-165" vertex="1">
          <mxGeometry x="7.560000000000002" y="4" width="47.56" height="33" as="geometry" />
        </mxCell>
        <mxCell id="-1FMtL--xxu45l2r8FuS-167" value="&lt;font style=&quot;font-size: 11px;&quot;&gt;Submit&lt;/font&gt;&lt;div&gt;&lt;font style=&quot;font-size: 11px;&quot;&gt;header &amp;amp; bid&lt;/font&gt;&lt;/div&gt;" style="text;html=1;align=center;verticalAlign=middle;resizable=0;points=[];autosize=1;fillColor=none;" parent="-1FMtL--xxu45l2r8FuS-165" vertex="1">
          <mxGeometry x="-15" width="90" height="40" as="geometry" />
        </mxCell>
        <mxCell id="-1FMtL--xxu45l2r8FuS-168" value="" style="group" parent="1" vertex="1" connectable="0">
          <mxGeometry x="801.38" y="261" width="100" height="49" as="geometry" />
        </mxCell>
        <mxCell id="-1FMtL--xxu45l2r8FuS-169" value="" style="ellipse;whiteSpace=wrap;html=1;strokeColor=none;" parent="-1FMtL--xxu45l2r8FuS-168" vertex="1">
          <mxGeometry x="5.2" y="10" width="77.52" height="39" as="geometry" />
        </mxCell>
        <mxCell id="-1FMtL--xxu45l2r8FuS-170" value="&lt;font style=&quot;font-size: 11px;&quot;&gt;Select winning&amp;nbsp;&lt;/font&gt;&lt;div&gt;&lt;font style=&quot;font-size: 11px;&quot;&gt;header&lt;/font&gt;&lt;/div&gt;" style="text;html=1;align=center;verticalAlign=middle;resizable=0;points=[];autosize=1;strokeColor=none;fillColor=none;" parent="-1FMtL--xxu45l2r8FuS-168" vertex="1">
          <mxGeometry y="9.947368421052632" width="100" height="40" as="geometry" />
        </mxCell>
        <mxCell id="GnqxHci-bO8c4mKDv5G1-2" value="&lt;b&gt;2 Commit&lt;/b&gt;" style="text;html=1;align=center;verticalAlign=middle;whiteSpace=wrap;rounded=0;" vertex="1" parent="-1FMtL--xxu45l2r8FuS-168">
          <mxGeometry x="20" y="-11" width="60" height="30" as="geometry" />
        </mxCell>
        <mxCell id="-1FMtL--xxu45l2r8FuS-171" value="" style="group;strokeColor=none;" parent="1" vertex="1" connectable="0">
          <mxGeometry x="844" y="213" width="90" height="44" as="geometry" />
        </mxCell>
        <mxCell id="-1FMtL--xxu45l2r8FuS-172" value="" style="ellipse;whiteSpace=wrap;html=1;strokeColor=none;" parent="-1FMtL--xxu45l2r8FuS-171" vertex="1">
          <mxGeometry x="9.620000000000005" y="2" width="70" height="42" as="geometry" />
        </mxCell>
        <mxCell id="-1FMtL--xxu45l2r8FuS-173" value="&lt;font style=&quot;font-size: 11px;&quot;&gt;Send full&lt;/font&gt;&lt;div&gt;&lt;font style=&quot;font-size: 11px;&quot;&gt;block content&amp;nbsp;&lt;/font&gt;&lt;/div&gt;" style="text;html=1;align=center;verticalAlign=middle;resizable=0;points=[];autosize=1;strokeColor=none;fillColor=none;" parent="-1FMtL--xxu45l2r8FuS-171" vertex="1">
          <mxGeometry width="90" height="40" as="geometry" />
        </mxCell>
        <mxCell id="-1FMtL--xxu45l2r8FuS-175" value="" style="group" parent="1" vertex="1" connectable="0">
          <mxGeometry x="629" y="391" width="50.38" height="60" as="geometry" />
        </mxCell>
        <mxCell id="-1FMtL--xxu45l2r8FuS-176" value="" style="rounded=1;whiteSpace=wrap;html=1;" parent="-1FMtL--xxu45l2r8FuS-175" vertex="1">
          <mxGeometry width="50.38" height="60" as="geometry" />
        </mxCell>
        <mxCell id="-1FMtL--xxu45l2r8FuS-177" value="" style="shape=image;html=1;verticalAlign=top;verticalLabelPosition=bottom;labelBackgroundColor=#ffffff;imageAspect=0;aspect=fixed;image=https://cdn0.iconfinder.com/data/icons/basic-e-commerce-line/48/Receipt_success-128.png" parent="-1FMtL--xxu45l2r8FuS-175" vertex="1">
          <mxGeometry x="17.95207333333333" y="1.75" width="14.48425" height="14.48425" as="geometry" />
        </mxCell>
        <mxCell id="-1FMtL--xxu45l2r8FuS-178" value="" style="shape=image;html=1;verticalAlign=top;verticalLabelPosition=bottom;labelBackgroundColor=#ffffff;imageAspect=0;aspect=fixed;image=https://cdn0.iconfinder.com/data/icons/basic-e-commerce-line/48/Receipt_success-128.png" parent="-1FMtL--xxu45l2r8FuS-175" vertex="1">
          <mxGeometry x="17.95207333333333" y="18" width="14.48425" height="14.48425" as="geometry" />
        </mxCell>
        <mxCell id="-1FMtL--xxu45l2r8FuS-179" value="" style="shape=image;html=1;verticalAlign=top;verticalLabelPosition=bottom;labelBackgroundColor=#ffffff;imageAspect=0;aspect=fixed;image=https://cdn0.iconfinder.com/data/icons/basic-e-commerce-line/48/Receipt_success-128.png" parent="-1FMtL--xxu45l2r8FuS-175" vertex="1">
          <mxGeometry x="17.95207333333333" y="42.75" width="14.48425" height="14.48425" as="geometry" />
        </mxCell>
        <mxCell id="-1FMtL--xxu45l2r8FuS-180" value="..." style="text;html=1;align=center;verticalAlign=middle;resizable=0;points=[];autosize=1;strokeColor=none;fillColor=none;" parent="-1FMtL--xxu45l2r8FuS-175" vertex="1">
          <mxGeometry x="9.595" y="20.25" width="30" height="30" as="geometry" />
        </mxCell>
        <mxCell id="-1FMtL--xxu45l2r8FuS-181" value="" style="group" parent="1" vertex="1" connectable="0">
          <mxGeometry x="748" y="371" width="50.379999999999995" height="80" as="geometry" />
        </mxCell>
        <mxCell id="-1FMtL--xxu45l2r8FuS-182" value="Header" style="rounded=1;whiteSpace=wrap;html=1;fontStyle=1" parent="-1FMtL--xxu45l2r8FuS-181" vertex="1">
          <mxGeometry x="0.12000000000000455" width="50" height="20" as="geometry" />
        </mxCell>
        <mxCell id="-1FMtL--xxu45l2r8FuS-183" value="" style="group" parent="-1FMtL--xxu45l2r8FuS-181" vertex="1" connectable="0">
          <mxGeometry y="20" width="50.38" height="60" as="geometry" />
        </mxCell>
        <mxCell id="-1FMtL--xxu45l2r8FuS-184" value="" style="rounded=1;whiteSpace=wrap;html=1;" parent="-1FMtL--xxu45l2r8FuS-183" vertex="1">
          <mxGeometry width="50.38" height="60" as="geometry" />
        </mxCell>
        <mxCell id="-1FMtL--xxu45l2r8FuS-185" value="" style="shape=image;html=1;verticalAlign=top;verticalLabelPosition=bottom;labelBackgroundColor=#ffffff;imageAspect=0;aspect=fixed;image=https://cdn0.iconfinder.com/data/icons/basic-e-commerce-line/48/Receipt_success-128.png" parent="-1FMtL--xxu45l2r8FuS-183" vertex="1">
          <mxGeometry x="17.95207333333333" y="1.75" width="14.48425" height="14.48425" as="geometry" />
        </mxCell>
        <mxCell id="-1FMtL--xxu45l2r8FuS-186" value="" style="shape=image;html=1;verticalAlign=top;verticalLabelPosition=bottom;labelBackgroundColor=#ffffff;imageAspect=0;aspect=fixed;image=https://cdn0.iconfinder.com/data/icons/basic-e-commerce-line/48/Receipt_success-128.png" parent="-1FMtL--xxu45l2r8FuS-183" vertex="1">
          <mxGeometry x="17.95207333333333" y="18" width="14.48425" height="14.48425" as="geometry" />
        </mxCell>
        <mxCell id="-1FMtL--xxu45l2r8FuS-187" value="" style="shape=image;html=1;verticalAlign=top;verticalLabelPosition=bottom;labelBackgroundColor=#ffffff;imageAspect=0;aspect=fixed;image=https://cdn0.iconfinder.com/data/icons/basic-e-commerce-line/48/Receipt_success-128.png" parent="-1FMtL--xxu45l2r8FuS-183" vertex="1">
          <mxGeometry x="17.95207333333333" y="42.75" width="14.48425" height="14.48425" as="geometry" />
        </mxCell>
        <mxCell id="-1FMtL--xxu45l2r8FuS-188" value="..." style="text;html=1;align=center;verticalAlign=middle;resizable=0;points=[];autosize=1;strokeColor=none;fillColor=none;" parent="-1FMtL--xxu45l2r8FuS-183" vertex="1">
          <mxGeometry x="9.595" y="20.25" width="30" height="30" as="geometry" />
        </mxCell>
        <mxCell id="-1FMtL--xxu45l2r8FuS-189" value="" style="group" parent="1" vertex="1" connectable="0">
          <mxGeometry x="924" y="371" width="50.620000000000005" height="80" as="geometry" />
        </mxCell>
        <mxCell id="-1FMtL--xxu45l2r8FuS-190" value="Header" style="rounded=1;whiteSpace=wrap;html=1;fontStyle=1" parent="-1FMtL--xxu45l2r8FuS-189" vertex="1">
          <mxGeometry x="0.6200000000000045" width="50" height="20" as="geometry" />
        </mxCell>
        <mxCell id="-1FMtL--xxu45l2r8FuS-191" value="" style="group" parent="-1FMtL--xxu45l2r8FuS-189" vertex="1" connectable="0">
          <mxGeometry y="20" width="50.38" height="60" as="geometry" />
        </mxCell>
        <mxCell id="-1FMtL--xxu45l2r8FuS-192" value="" style="rounded=1;whiteSpace=wrap;html=1;" parent="-1FMtL--xxu45l2r8FuS-191" vertex="1">
          <mxGeometry width="50.38" height="60" as="geometry" />
        </mxCell>
        <mxCell id="-1FMtL--xxu45l2r8FuS-193" value="" style="shape=image;html=1;verticalAlign=top;verticalLabelPosition=bottom;labelBackgroundColor=#ffffff;imageAspect=0;aspect=fixed;image=https://cdn0.iconfinder.com/data/icons/basic-e-commerce-line/48/Receipt_success-128.png" parent="-1FMtL--xxu45l2r8FuS-191" vertex="1">
          <mxGeometry x="17.95207333333333" y="1.75" width="14.48425" height="14.48425" as="geometry" />
        </mxCell>
        <mxCell id="-1FMtL--xxu45l2r8FuS-194" value="" style="shape=image;html=1;verticalAlign=top;verticalLabelPosition=bottom;labelBackgroundColor=#ffffff;imageAspect=0;aspect=fixed;image=https://cdn0.iconfinder.com/data/icons/basic-e-commerce-line/48/Receipt_success-128.png" parent="-1FMtL--xxu45l2r8FuS-191" vertex="1">
          <mxGeometry x="17.95207333333333" y="18" width="14.48425" height="14.48425" as="geometry" />
        </mxCell>
        <mxCell id="-1FMtL--xxu45l2r8FuS-195" value="" style="shape=image;html=1;verticalAlign=top;verticalLabelPosition=bottom;labelBackgroundColor=#ffffff;imageAspect=0;aspect=fixed;image=https://cdn0.iconfinder.com/data/icons/basic-e-commerce-line/48/Receipt_success-128.png" parent="-1FMtL--xxu45l2r8FuS-191" vertex="1">
          <mxGeometry x="17.95207333333333" y="42.75" width="14.48425" height="14.48425" as="geometry" />
        </mxCell>
        <mxCell id="-1FMtL--xxu45l2r8FuS-196" value="..." style="text;html=1;align=center;verticalAlign=middle;resizable=0;points=[];autosize=1;strokeColor=none;fillColor=none;" parent="-1FMtL--xxu45l2r8FuS-191" vertex="1">
          <mxGeometry x="9.595" y="20.25" width="30" height="30" as="geometry" />
        </mxCell>
        <mxCell id="-1FMtL--xxu45l2r8FuS-197" value="" style="ellipse;whiteSpace=wrap;html=1;strokeColor=none;" parent="1" vertex="1">
          <mxGeometry x="783.56" y="318" width="52.44" height="36" as="geometry" />
        </mxCell>
        <mxCell id="-1FMtL--xxu45l2r8FuS-198" value="&lt;font style=&quot;font-size: 11px;&quot;&gt;Submit&lt;/font&gt;&lt;div&gt;&lt;font style=&quot;font-size: 11px;&quot;&gt;header &amp;amp; bid&lt;/font&gt;&lt;/div&gt;" style="text;html=1;align=center;verticalAlign=middle;resizable=0;points=[];autosize=1;fillColor=none;" parent="1" vertex="1">
          <mxGeometry x="763.12" y="314" width="90" height="40" as="geometry" />
        </mxCell>
        <mxCell id="-1FMtL--xxu45l2r8FuS-199" value="&lt;b&gt;1&lt;/b&gt;" style="ellipse;whiteSpace=wrap;html=1;aspect=fixed;strokeColor=none;" parent="1" vertex="1">
          <mxGeometry x="795.78" y="301" width="20" height="20" as="geometry" />
        </mxCell>
        <mxCell id="-1FMtL--xxu45l2r8FuS-206" value="" style="endArrow=none;dashed=1;html=1;dashPattern=1 3;strokeWidth=2;rounded=0;" parent="1" edge="1">
          <mxGeometry width="50" height="50" relative="1" as="geometry">
            <mxPoint x="490" y="560" as="sourcePoint" />
            <mxPoint x="490" y="40" as="targetPoint" />
          </mxGeometry>
        </mxCell>
        <mxCell id="-1FMtL--xxu45l2r8FuS-202" value="" style="ellipse;whiteSpace=wrap;html=1;strokeColor=none;" parent="1" vertex="1">
          <mxGeometry x="805.12" y="146" width="100" height="44" as="geometry" />
        </mxCell>
        <mxCell id="-1FMtL--xxu45l2r8FuS-205" value="&lt;font style=&quot;font-size: 11px;&quot;&gt;Confirm block&lt;/font&gt;&lt;div&gt;&lt;font style=&quot;font-size: 11px;&quot;&gt;Publish on chain&lt;/font&gt;&lt;/div&gt;" style="text;html=1;align=center;verticalAlign=middle;resizable=0;points=[];autosize=1;strokeColor=none;fillColor=none;" parent="1" vertex="1">
          <mxGeometry x="806.5" y="146" width="100" height="40" as="geometry" />
        </mxCell>
        <mxCell id="oib7CDGQkhKYYUueT1HI-1" value="&lt;span style=&quot;font-size: 11px;&quot;&gt;Proposer selected for block n at 2 block ahead&lt;/span&gt;" style="ellipse;whiteSpace=wrap;html=1;strokeColor=none;" parent="1" vertex="1">
          <mxGeometry x="657.1899999999999" y="146" width="130.12" height="40" as="geometry" />
        </mxCell>
        <mxCell id="GnqxHci-bO8c4mKDv5G1-3" value="&lt;b&gt;3 Reveal&lt;/b&gt;" style="text;html=1;align=center;verticalAlign=middle;whiteSpace=wrap;rounded=0;" vertex="1" parent="1">
          <mxGeometry x="861.5" y="195" width="60" height="30" as="geometry" />
        </mxCell>
        <mxCell id="GnqxHci-bO8c4mKDv5G1-5" value="&lt;div style=&quot;line-height: 60%;&quot;&gt;&lt;h3 style=&quot;line-height: 60%;&quot;&gt;&lt;font style=&quot;color: light-dark(rgb(214, 182, 86), rgb(105, 70, 122));&quot;&gt;Users&lt;/font&gt;&lt;/h3&gt;&lt;div&gt;&lt;font&gt;&lt;font color=&quot;#d6b656&quot;&gt;{Ui}&lt;/font&gt;&lt;/font&gt;&lt;/div&gt;&lt;/div&gt;" style="text;html=1;align=center;verticalAlign=middle;resizable=0;points=[];autosize=1;strokeColor=none;fillColor=none;" vertex="1" parent="1">
          <mxGeometry x="47.5" y="511" width="60" height="60" as="geometry" />
        </mxCell>
      </root>
    </mxGraphModel>
  </diagram>
</mxfile>
